<svg width="93" height="60" viewBox="0 0 93 60" fill="none" xmlns="http://www.w3.org/2000/svg">
<path d="M71.8255 29C71.0755 29 69.6355 27.68 67.5055 25.04C65.4055 22.37 62.8705 18.71 59.9005 14.06L62.4205 13.25C65.0305 17.12 67.2055 20.15 68.9455 22.34C70.7155 24.5 72.2755 26.06 73.6255 27.02C74.9755 27.98 76.2955 28.46 77.5855 28.46C77.6755 28.46 77.7205 28.55 77.7205 28.73C77.7205 28.91 77.6755 29 77.5855 29H71.8255ZM59.5855 0.739998C62.0155 0.739998 63.8905 1.235 65.2105 2.225C66.5305 3.215 67.1905 4.595 67.1905 6.365C67.1905 7.835 66.7555 9.215 65.8855 10.505C65.0155 11.795 63.8455 12.83 62.3755 13.61C60.9355 14.36 59.3755 14.735 57.6955 14.735C57.1255 14.735 56.4505 14.705 55.6705 14.645V25.355C55.6705 26.285 55.7605 26.96 55.9405 27.38C56.1205 27.8 56.4655 28.085 56.9755 28.235C57.5155 28.385 58.3555 28.46 59.4955 28.46C59.5855 28.46 59.6305 28.55 59.6305 28.73C59.6305 28.91 59.5855 29 59.4955 29C58.5655 29 57.8305 28.985 57.2905 28.955L54.1855 28.91L51.1255 28.955C50.5855 28.985 49.8205 29 48.8305 29C48.7705 29 48.7405 28.91 48.7405 28.73C48.7405 28.55 48.7705 28.46 48.8305 28.46C49.9705 28.46 50.8105 28.385 51.3505 28.235C51.8905 28.055 52.2655 27.755 52.4755 27.335C52.6855 26.915 52.7905 26.255 52.7905 25.355V4.52C52.7905 3.62 52.6855 2.96 52.4755 2.54C52.2955 2.12 51.9355 1.835 51.3955 1.685C50.8855 1.505 50.0605 1.415 48.9205 1.415C48.8305 1.415 48.7855 1.325 48.7855 1.145C48.7855 0.964999 48.8305 0.874999 48.9205 0.874999L51.1255 0.919998C52.3855 0.979997 53.4055 1.01 54.1855 1.01C54.7255 1.01 55.2355 0.994998 55.7155 0.964998C56.1955 0.934999 56.6155 0.904999 56.9755 0.874999C57.9355 0.784998 58.8055 0.739998 59.5855 0.739998ZM64.1305 7.94C64.1305 3.59 62.3005 1.415 58.6405 1.415C57.8305 1.415 57.2155 1.49 56.7955 1.64C56.4055 1.76 56.1205 2.045 55.9405 2.495C55.7605 2.915 55.6705 3.62 55.6705 4.61V13.52C56.3905 13.64 57.2755 13.7 58.3255 13.7C60.3955 13.7 61.8805 13.265 62.7805 12.395C63.6805 11.495 64.1305 10.01 64.1305 7.94Z" fill="black"/>
<path d="M25.89 29C25.83 29 25.8 28.91 25.8 28.73C25.8 28.55 25.83 28.46 25.89 28.46C27.03 28.46 27.87 28.385 28.41 28.235C28.95 28.085 29.31 27.8 29.49 27.38C29.7 26.93 29.805 26.255 29.805 25.355V4.52C29.805 3.62 29.7 2.96 29.49 2.54C29.31 2.12 28.95 1.835 28.41 1.685C27.9 1.505 27.075 1.415 25.935 1.415C25.875 1.415 25.845 1.325 25.845 1.145C25.845 0.965 25.875 0.875 25.935 0.875H44.025C44.295 0.875 44.43 1.01 44.43 1.28L44.52 6.815C44.52 6.905 44.43 6.965 44.25 6.995C44.1 6.995 44.025 6.95 44.025 6.86C43.935 5.27 43.455 4.04 42.585 3.17C41.715 2.27 40.56 1.82 39.12 1.82H36.375C35.355 1.82 34.59 1.895 34.08 2.045C33.57 2.195 33.21 2.465 33 2.855C32.79 3.245 32.685 3.815 32.685 4.565V25.175C32.685 26.135 32.805 26.84 33.045 27.29C33.315 27.71 33.825 28.01 34.575 28.19C35.355 28.37 36.555 28.46 38.175 28.46C38.265 28.46 38.31 28.55 38.31 28.73C38.31 28.91 38.265 29 38.175 29C36.945 29 35.985 28.985 35.295 28.955L31.245 28.91L28.185 28.955C27.645 28.985 26.88 29 25.89 29ZM41.73 19.055C41.73 17.735 41.37 16.79 40.65 16.22C39.96 15.65 38.79 15.365 37.14 15.365H31.335V14.42H37.275C38.865 14.42 39.99 14.18 40.65 13.7C41.34 13.19 41.685 12.38 41.685 11.27C41.685 11.21 41.775 11.18 41.955 11.18C42.135 11.18 42.225 11.21 42.225 11.27L42.18 14.915C42.18 15.785 42.195 16.445 42.225 16.895L42.27 19.055C42.27 19.115 42.18 19.145 42 19.145C41.82 19.145 41.73 19.115 41.73 19.055Z" fill="black"/>
<path d="M84.3261 51.23C84.2461 51.23 84.2061 51.2 84.2061 51.14C84.2061 50.88 84.8861 50.4 86.2461 49.7C86.5861 49.54 86.8961 49.38 87.1761 49.22C87.4561 49.04 87.6961 48.88 87.8961 48.74C89.1161 47.84 89.7261 47.06 89.7261 46.4C89.7261 45.9 89.2361 45.65 88.2561 45.65C85.9761 45.61 84.8361 45.11 84.8361 44.15C84.8361 43.73 85.0161 43.33 85.3761 42.95C85.7961 42.47 86.4961 42.01 87.4761 41.57C88.5361 41.09 89.5061 40.85 90.3861 40.85C91.1661 40.85 91.7561 41.04 92.1561 41.42C92.3361 41.6 92.4261 41.82 92.4261 42.08C92.4261 42.36 92.3361 42.61 92.1561 42.83C91.9761 43.05 91.7761 43.16 91.5561 43.16C91.1561 43.16 90.9361 42.89 90.8961 42.35C90.8961 41.97 90.8361 41.75 90.7161 41.69C90.5961 41.63 90.2761 41.6 89.7561 41.6C89.0961 41.6 88.3561 41.82 87.5361 42.26C86.5561 42.76 86.0961 43.36 86.1561 44.06C86.1961 44.46 86.9561 44.66 88.4361 44.66C90.4561 44.66 91.4661 45.15 91.4661 46.13C91.4661 47.19 90.5961 48.25 88.8561 49.31C87.7561 49.99 86.4161 50.59 84.8361 51.11C84.6161 51.19 84.4461 51.23 84.3261 51.23Z" fill="black"/>
<path d="M80.0855 50.33C79.6855 50.33 79.3155 50.2 78.9755 49.94C78.6555 49.68 78.4655 49.43 78.4055 49.19C78.3455 48.91 78.7155 47.91 79.5155 46.19L78.8255 47.18C78.5255 47.62 78.2255 48.01 77.9255 48.35C77.6255 48.69 77.3455 48.99 77.0855 49.25C76.3255 49.97 75.6855 50.27 75.1655 50.15C73.9655 49.87 73.3655 49.19 73.3655 48.11C73.3655 47.25 73.7755 46.15 74.5955 44.81C74.8555 44.41 75.1855 44.01 75.5855 43.61C75.9855 43.21 76.4455 42.82 76.9655 42.44C78.3055 41.46 79.5955 40.97 80.8355 40.97C81.5955 40.97 82.3155 41.17 82.9955 41.57C83.2155 41.73 83.3255 41.9 83.3255 42.08C83.3255 42.22 83.2855 42.29 83.2055 42.29C83.1855 42.29 83.1655 42.28 83.1455 42.26C82.7255 41.8 82.1655 41.57 81.4655 41.57C80.6455 41.57 79.7555 41.88 78.7955 42.5C77.8355 43.12 76.9755 43.95 76.2155 44.99C75.1355 46.49 74.5955 47.71 74.5955 48.65C74.5955 49.19 74.7855 49.53 75.1655 49.67C75.6455 49.87 76.6655 48.98 78.2255 47C78.8655 46.22 79.3955 45.52 79.8155 44.9C80.2555 44.28 80.6055 43.75 80.8655 43.31C80.9855 43.09 81.2055 42.98 81.5255 42.98C82.1255 42.98 82.4255 43.16 82.4255 43.52C82.4255 43.58 82.4155 43.62 82.3955 43.64C80.6555 46.4 79.7855 48.27 79.7855 49.25C79.7855 49.49 79.8555 49.62 79.9955 49.64C80.4155 49.76 81.1155 49.45 82.0955 48.71C83.2755 47.83 84.3855 46.66 85.4255 45.2C85.6455 44.9 85.8455 44.75 86.0255 44.75C86.0855 44.75 86.1155 44.77 86.1155 44.81C86.1155 44.91 86.0255 45.1 85.8455 45.38C85.4255 46.04 84.9555 46.66 84.4355 47.24C83.9355 47.82 83.3755 48.36 82.7555 48.86C81.8755 49.6 81.1555 50.06 80.5955 50.24C80.4555 50.3 80.2855 50.33 80.0855 50.33Z" fill="black"/>
<path d="M72.4794 39.47C72.1594 39.51 71.8094 39.47 71.4294 39.35C71.0694 39.23 70.8894 39.08 70.8894 38.9C70.8894 38.78 70.9294 38.66 71.0094 38.54C71.0894 38.4 71.1893 38.26 71.3093 38.12C71.6493 37.7 71.8494 37.44 71.9094 37.34C71.9694 37.22 72.0793 37.16 72.2393 37.16C72.6993 37.16 73.0594 37.38 73.3194 37.82C73.3394 37.84 73.3493 37.88 73.3493 37.94C73.3493 38.12 73.2494 38.38 73.0494 38.72C72.7894 39.2 72.5994 39.45 72.4794 39.47ZM67.9494 50.3C66.7894 50.04 66.2094 49.58 66.2094 48.92C66.2094 48.6 66.5993 47.47 67.3793 45.53C67.5993 45.15 67.8894 44.6 68.2494 43.88C68.6294 43.14 69.0994 42.24 69.6594 41.18C69.7594 41.02 69.9794 40.94 70.3194 40.94C70.6194 40.94 70.9094 40.99 71.1894 41.09C71.4894 41.17 71.6094 41.25 71.5494 41.33C68.9094 45.07 67.5894 47.66 67.5894 49.1C67.5894 49.52 67.7294 49.73 68.0094 49.73C68.5494 49.73 69.3993 49.35 70.5593 48.59C71.9393 47.65 73.0994 46.52 74.0394 45.2C74.2394 44.88 74.4394 44.72 74.6394 44.72C74.6994 44.72 74.7294 44.75 74.7294 44.81C74.7294 44.91 74.6394 45.1 74.4594 45.38C73.5794 46.76 72.3594 47.98 70.7994 49.04C69.3994 50 68.4494 50.42 67.9494 50.3Z" fill="black"/>
<path d="M59.3251 50.33C57.8651 50.33 57.1351 49.43 57.1351 47.63C57.1351 45.83 57.8551 44.11 59.2951 42.47C59.3151 42.45 59.3051 42.38 59.2651 42.26C59.2251 42.12 59.2051 42.02 59.2051 41.96C59.2051 41.84 59.2451 41.75 59.3251 41.69C60.0251 41.13 60.8451 40.85 61.7851 40.85C62.0451 40.85 62.2551 40.9 62.4151 41C62.6151 41.08 62.8051 41.16 62.9851 41.24C63.1651 41.32 63.3351 41.41 63.4951 41.51C64.2551 41.97 64.7851 42.45 65.0851 42.95C65.5851 42.93 66.0051 42.91 66.3451 42.89C66.6851 42.87 66.9451 42.85 67.1251 42.83H67.2451C67.4251 42.83 67.5151 42.9 67.5151 43.04C67.5151 43.08 67.4751 43.11 67.3951 43.13C67.1751 43.17 66.8851 43.22 66.5251 43.28C66.1851 43.34 65.7651 43.4 65.2651 43.46C65.3251 43.6 65.3551 43.76 65.3551 43.94C65.3551 44.08 65.3451 44.18 65.3251 44.24C65.0251 45.86 64.2351 47.28 62.9551 48.5C61.7151 49.72 60.5051 50.33 59.3251 50.33ZM64.3651 42.95C64.0451 42.45 63.4151 42.2 62.4751 42.2C61.7551 42.2 61.2851 42.28 61.0651 42.44C61.0051 42.46 60.9451 42.5 60.8851 42.56C60.8251 42.62 60.7551 42.69 60.6751 42.77C61.7951 42.91 63.0251 42.97 64.3651 42.95ZM59.4151 49.85C60.2951 49.85 61.3051 49.22 62.4451 47.96C63.6051 46.7 64.2951 45.48 64.5151 44.3C64.5351 44.2 64.5451 44.12 64.5451 44.06C64.5651 43.98 64.5751 43.91 64.5751 43.85C64.5751 43.73 64.5551 43.61 64.5151 43.49C64.1351 43.51 63.7451 43.52 63.3451 43.52C62.9451 43.52 62.5451 43.52 62.1451 43.52C61.7451 43.52 61.3751 43.52 61.0351 43.52C60.7151 43.52 60.4251 43.51 60.1651 43.49C59.3651 44.57 58.8651 45.44 58.6651 46.1C58.4251 46.84 58.3051 47.55 58.3051 48.23C58.3051 49.31 58.6751 49.85 59.4151 49.85Z" fill="black"/>
<path d="M57.0763 39.47C56.7563 39.51 56.4163 39.47 56.0563 39.35C55.6963 39.23 55.5163 39.08 55.5163 38.9C55.5163 38.8 55.5563 38.68 55.6363 38.54C55.7163 38.4 55.8163 38.26 55.9363 38.12C56.2763 37.7 56.4763 37.44 56.5363 37.34C56.5963 37.22 56.7163 37.16 56.8963 37.16C57.3363 37.16 57.6863 37.38 57.9463 37.82C57.9663 37.84 57.9763 37.88 57.9763 37.94C57.9763 38.08 57.8663 38.34 57.6463 38.72C57.3863 39.2 57.1963 39.45 57.0763 39.47ZM45.8263 59.24C45.0663 59.24 44.6863 58.86 44.6863 58.1C44.6863 57.48 44.9563 56.74 45.4963 55.88C45.8363 55.34 46.2763 54.76 46.8163 54.14C47.3363 53.54 47.9663 52.9 48.7063 52.22C50.0263 50.94 51.4263 49.83 52.9063 48.89C53.2463 48.05 53.7063 46.74 54.2863 44.96V44.93C54.2863 44.89 54.2663 44.84 54.2263 44.78C54.2063 44.72 54.1963 44.66 54.1963 44.6C54.1963 44.32 54.4163 43.89 54.8563 43.31C54.9963 43.11 55.1963 43.01 55.4563 43.01C55.9363 43.01 56.1763 43.19 56.1763 43.55C56.1763 43.63 56.1463 43.72 56.0863 43.82C55.9463 44.22 55.7563 44.76 55.5163 45.44C55.2763 46.1 54.9863 46.9 54.6463 47.84C55.2863 47.46 55.7963 47.27 56.1763 47.27C56.3363 47.27 56.4163 47.31 56.4163 47.39C56.4163 47.59 56.1663 47.78 55.6663 47.96C55.4663 48.04 55.2463 48.13 55.0063 48.23C54.7863 48.33 54.5463 48.45 54.2863 48.59C52.8863 52.07 51.1963 54.94 49.2163 57.2C48.0163 58.56 46.8863 59.24 45.8263 59.24ZM46.4563 58.61C46.8363 58.61 47.2963 58.3 47.8363 57.68C49.6163 55.68 51.1763 53.06 52.5163 49.82C49.8563 51.8 47.8763 53.86 46.5763 56C46.1363 56.7 45.9163 57.32 45.9163 57.86C45.9163 58.36 46.0963 58.61 46.4563 58.61Z" fill="black"/>
<path d="M49.9501 39.47C49.6301 39.51 49.2801 39.47 48.9001 39.35C48.5401 39.23 48.3601 39.08 48.3601 38.9C48.3601 38.78 48.4001 38.66 48.4801 38.54C48.5601 38.4 48.6601 38.26 48.7801 38.12C49.1201 37.7 49.3201 37.44 49.3801 37.34C49.4401 37.22 49.5501 37.16 49.7101 37.16C50.1701 37.16 50.5301 37.38 50.7901 37.82C50.8101 37.84 50.8201 37.88 50.8201 37.94C50.8201 38.12 50.7201 38.38 50.5201 38.72C50.2601 39.2 50.0701 39.45 49.9501 39.47ZM45.4201 50.3C44.2601 50.04 43.6801 49.58 43.6801 48.92C43.6801 48.6 44.0701 47.47 44.8501 45.53C45.0701 45.15 45.3601 44.6 45.7201 43.88C46.1001 43.14 46.5701 42.24 47.1301 41.18C47.2301 41.02 47.4501 40.94 47.7901 40.94C48.0901 40.94 48.3801 40.99 48.6601 41.09C48.9601 41.17 49.0801 41.25 49.0201 41.33C46.3801 45.07 45.0601 47.66 45.0601 49.1C45.0601 49.52 45.2001 49.73 45.4801 49.73C46.0201 49.73 46.8701 49.35 48.0301 48.59C49.4101 47.65 50.5701 46.52 51.5101 45.2C51.7101 44.88 51.9101 44.72 52.1101 44.72C52.1701 44.72 52.2001 44.75 52.2001 44.81C52.2001 44.91 52.1101 45.1 51.9301 45.38C51.0501 46.76 49.8301 47.98 48.2701 49.04C46.8701 50 45.9201 50.42 45.4201 50.3Z" fill="black"/>
<path d="M39.1398 50.3C38.6998 50.34 38.2798 50.23 37.8798 49.97C37.4798 49.69 37.2798 49.38 37.2798 49.04C37.2798 48.42 37.8698 47.23 39.0498 45.47C40.3498 43.53 40.9998 42.41 40.9998 42.11C40.9998 41.93 40.9098 41.83 40.7298 41.81C40.1498 41.85 39.3698 42.31 38.3898 43.19C36.8898 44.57 35.3798 46.65 33.8598 49.43C33.7998 49.53 33.5698 49.58 33.1698 49.58C32.7298 49.58 32.5098 49.4 32.5098 49.04C32.5098 48.42 33.0998 47.23 34.2798 45.47C35.5798 43.53 36.2298 42.41 36.2298 42.11C36.2298 41.93 36.1398 41.83 35.9598 41.81C35.3798 41.85 34.4798 42.43 33.2598 43.55C31.4998 45.19 29.8798 47.37 28.3998 50.09C28.3798 50.13 28.3298 50.16 28.2498 50.18C28.1898 50.2 28.0698 50.21 27.8898 50.21C27.1298 50.21 26.7898 50.09 26.8698 49.85C27.0898 49.27 27.4698 48.4 28.0098 47.24C28.5698 46.08 29.2898 44.62 30.1698 42.86C30.7698 41.68 31.3798 41.09 31.9998 41.09C32.1998 41.09 32.3298 41.14 32.3898 41.24C32.4298 41.3 32.0098 42.16 31.1298 43.82C30.7098 44.62 30.3798 45.26 30.1398 45.74C29.8998 46.2 29.7298 46.5 29.6298 46.64C29.9698 46.3 30.3698 45.88 30.8298 45.38C31.3098 44.88 31.8598 44.3 32.4798 43.64C33.4598 42.54 34.5398 41.72 35.7198 41.18C35.9598 41.08 36.2098 41.03 36.4698 41.03C37.3298 41.03 37.7598 41.4 37.7598 42.14C37.7598 42.56 37.5898 43.06 37.2498 43.64C38.1698 42.56 39.2498 41.74 40.4898 41.18C40.7698 41.06 41.0898 41 41.4498 41C42.2698 41 42.6798 41.3 42.6798 41.9C42.6798 42.28 42.4898 42.73 42.1098 43.25C39.9498 46.27 38.8698 48.3 38.8698 49.34C38.8698 49.56 38.9398 49.7 39.0798 49.76C39.3798 49.88 39.9498 49.7 40.7898 49.22C41.8498 48.6 42.8298 47.73 43.7298 46.61C43.8498 46.47 43.9698 46.4 44.0898 46.4C44.1698 46.4 44.2098 46.43 44.2098 46.49C44.2098 46.57 44.1498 46.69 44.0298 46.85C43.0298 48.13 42.0398 49.07 41.0598 49.67C40.2598 50.17 39.6198 50.38 39.1398 50.3Z" fill="black"/>
<path d="M22.3112 50.24C21.7312 50.24 21.2212 50.1 20.7812 49.82C20.2012 49.42 19.9112 48.84 19.9112 48.08C19.9112 47.26 20.2612 46.26 20.9612 45.08C21.9012 43.54 23.2812 42.19 25.1012 41.03C25.5612 40.73 26.0212 40.58 26.4812 40.58C27.0812 40.58 27.5112 40.77 27.7712 41.15C27.9312 41.37 28.0112 41.62 28.0112 41.9C28.0112 42.74 27.3312 43.66 25.9712 44.66C25.5712 44.94 25.1412 45.2 24.6812 45.44C24.2412 45.66 23.7612 45.82 23.2412 45.92L21.9512 46.19C21.4712 47.05 21.2312 47.77 21.2312 48.35C21.2312 49.15 21.7012 49.55 22.6412 49.55C23.3812 49.55 24.2812 49.24 25.3412 48.62C26.7612 47.8 27.9812 46.66 29.0012 45.2C29.1612 44.96 29.3112 44.84 29.4512 44.84C29.5112 44.84 29.5412 44.88 29.5412 44.96C29.5412 45.06 29.4712 45.21 29.3312 45.41C27.3912 48.33 25.2012 49.93 22.7612 50.21C22.6812 50.23 22.6012 50.24 22.5212 50.24C22.4612 50.24 22.3912 50.24 22.3112 50.24ZM22.3112 45.68C22.8712 45.68 23.5912 45.43 24.4712 44.93C25.7112 44.23 26.5812 43.33 27.0812 42.23C27.2212 41.95 27.2912 41.72 27.2912 41.54C27.2912 41.36 27.2212 41.27 27.0812 41.27C26.8212 41.27 26.2912 41.59 25.4912 42.23C24.9112 42.73 24.3412 43.27 23.7812 43.85C23.2412 44.41 22.7212 45.01 22.2212 45.65C22.2012 45.67 22.2312 45.68 22.3112 45.68Z" fill="black"/>
<path d="M5.27 52.4C3.25 52.4 1.85 51.94 1.07 51.02C0.650002 50.54 0.440002 50 0.440002 49.4C0.440002 47.96 1.52 46.39 3.68 44.69C4.38 44.13 5.05 43.85 5.69 43.85C5.85 43.85 5.93 43.88 5.93 43.94C5.93 44.08 5.68 44.25 5.18 44.45C4.32 44.81 3.58 45.47 2.96 46.43C2.32 47.41 2 48.34 2 49.22C2 50.84 3.28 51.65 5.84 51.65C7.42 51.65 8.82 51.41 10.04 50.93C12.72 49.89 14.86 48.54 16.46 46.88C17.86 45.46 18.56 44.1 18.56 42.8C18.56 41.22 17.6 40.43 15.68 40.43C12.64 40.43 10.38 40.05 8.9 39.29C7.68 38.67 7.07 37.85 7.07 36.83C7.07 35.07 8.4 33.61 11.06 32.45C13.22 31.47 15.28 30.98 17.24 30.98C18.84 30.98 20.1 31.31 21.02 31.97C21.26 32.11 21.38 32.31 21.38 32.57C21.38 32.95 21.14 33.34 20.66 33.74C20.2 34.14 19.86 34.32 19.64 34.28C19.6 34.28 19.67 34.15 19.85 33.89C20.11 33.57 20.24 33.28 20.24 33.02C20.24 32.78 20.15 32.57 19.97 32.39C19.43 31.81 18.44 31.52 17 31.52C15.4 31.52 13.76 31.87 12.08 32.57C10.32 33.33 9.25 34.22 8.87 35.24C8.67 35.76 8.57 36.23 8.57 36.65C8.57 38.43 11.06 39.32 16.04 39.32C19.04 39.32 20.54 40.22 20.54 42.02C20.54 43.54 19.57 45.27 17.63 47.21C15.65 49.15 13.51 50.52 11.21 51.32C9.15 52.04 7.17 52.4 5.27 52.4Z" fill="black"/>
</svg>
